<svg xmlns="http://www.w3.org/2000/svg" viewBox="0 0 24 24" fill="#25D366">
  <path d="M20.52 3.48A11.88 11.88 0 0 0 12 0C5.38 0 0 5.38 0 12a11.94 11.94 0 0 0 1.67 6.08L0 24l6.14-1.61A11.94 11.94 0 0 0 12 24c6.62 0 12-5.38 12-12a11.88 11.88 0 0 0-3.48-8.52ZM12 22a9.9 9.9 0 0 1-5.05-1.39l-.36-.21-3.64.95.97-3.55-.24-.37A9.9 9.9 0 1 1 12 22Zm5.46-7.45c-.3-.15-1.76-.87-2.03-.97-.27-.1-.47-.15-.66.15-.2.3-.76.97-.93 1.17-.17.2-.35.22-.65.07-.3-.15-1.27-.47-2.42-1.5-.9-.8-1.5-1.78-1.68-2.08-.17-.3-.02-.46.13-.6.13-.13.3-.35.45-.52.15-.17.2-.3.3-.5.1-.2.05-.37-.02-.52-.07-.15-.66-1.6-.9-2.2-.24-.58-.48-.5-.66-.5h-.56c-.2 0-.52.07-.8.37-.27.3-1.05 1.03-1.05 2.5s1.08 2.9 1.23 3.1c.15.2 2.13 3.25 5.16 4.56.72.31 1.28.5 1.72.64.72.23 1.37.2 1.88.12.57-.08 1.76-.72 2.01-1.42.25-.7.25-1.3.17-1.42-.07-.12-.27-.2-.57-.35Z"/>
</svg>